<?xml version="1.0" encoding="utf-8"?>
<!-- Generator: Adobe Illustrator 17.1.0, SVG Export Plug-In . SVG Version: 6.00 Build 0)  -->
<!DOCTYPE svg PUBLIC "-//W3C//DTD SVG 1.1//EN" "http://www.w3.org/Graphics/SVG/1.1/DTD/svg11.dtd">
<svg version="1.1" id="Layer_1" xmlns="http://www.w3.org/2000/svg" xmlns:xlink="http://www.w3.org/1999/xlink" x="0px" y="0px"
	 width="60px" height="60px" viewBox="0 0 60 60" enable-background="new 0 0 60 60" xml:space="preserve">
<g>
	<circle fill="#0067c5" cx="713.9" cy="-36.7" r="6.9"/>
	<path fill="#0067c5" d="M704.2-2.5c-5.9,0-5.7-7.2-5-13.6c0.7-6.8,3.8-14.8,8.6-14c4.8,0.8,4.1,5.8,4.1,5.9
		c0.9,0.3,2.1,0.5,3.3,0.5c0,0,2.7-0.1,4.7-0.9c0.5-0.2,1.1-0.4,1.6-0.6l-1.3-1.9l0.5-0.4l1.4,2.1c1.2-0.3,2.3-0.3,3,0.5
		c0.5,0.6,0.9,2-0.4,3.3l1.2,1.7l-0.5,0.4l-1.2-1.7c-1,0.8-2.7,1.4-5.5,1.8c-3,0.4-5.5,0.1-7.5-0.5l-1.2,10.2c0,0,0.6,0.1,3.9,0.3
		v-0.8v-1.9V-14h-2v-3.7h31.5v3.7h-2v1.9v1.9v23.5h-4.5v-23.5h-18.7v1.3c2.7,0.9,3,2.9,3,2.9s3.4,12.1,3.6,13c0.2,1,1.6,5.2-1.7,6.2
		c-3.6,1.1-4.5-2.1-5-3.5v3.5H714l-0.2-15.9C712.4-2.6,709.2-2.5,704.2-2.5z"/>
	<path fill="#0067c5" d="M691.8-28.5v26v3.3v12.8h2.9V9.3h11.7v4h2.8V0.8h1.3v-3.3h-1.3h-2.8h-11.7v-26H691.8z M694.7,0.8h11.7V7
		h-11.7V0.8z"/>
	<rect x="719.6" y="-18.6" fill="#0067c5" width="10.8" height="0.3"/>
</g>
<g>
	<path fill="#0067c5" d="M71.2,1190.6H15.2v-33.4h56.1V1190.6z M17.2,1188.6h52.1v-29.4H17.2V1188.6z"/>
	<g>
		
			<rect x="37.4" y="1163.1" transform="matrix(0.7644 -0.6447 0.6447 0.7644 -746.4642 300.3753)" fill="#0067c5" width="0.8" height="17.1"/>
		<circle fill="#0067c5" cx="53" cy="1172.6" r="4.6"/>
		<path fill="#0067c5" d="M62.5,1198.3c-0.3-3.2-2.1-15.1-3.1-16.9c-1.4-2.5-4.2-2.5-4.2-2.5l-0.8,0h-1.2l-2.8,0
			c-2.8,0-3.1-0.2-4.6-1.8c-0.8-0.9-6.2-6.5-6.2-6.5c-0.7-0.7-1.8-0.7-2.5-0.1c-0.7,0.7-0.7,1.8-0.1,2.5l9.8,10.3
			c0.7,0.7,1.4,1.6,1.4,3.5c0,0,0,28.1,0,28.1c0,1.1,0.9,2.1,2.1,2.1c1.1,0,2.1-0.9,2.1-2.1v0v-12v-5.2v-1c0-0.4,0.3-0.7,0.7-0.7
			c0.4,0,0.7,0.3,0.7,0.7v1v5.2v12v0c0,1.1,0.9,2.1,2.1,2.1c1.1,0,2.1-0.9,2.1-2.1v-24.7c0.4,2.5,1.5,7.7,1.6,8.1
			c0.2,1.1,0.9,1.8,1.9,1.7C62.3,1200,62.6,1199.1,62.5,1198.3z"/>
	</g>
</g>
<g>
	<circle fill="#0067c5" cx="19.1" cy="36.2" r="3.6"/>
	<path fill="#0067c5" d="M33.4,36.8c-0.3-1.5-1.5-2.5-3.3-2.6c-0.6,0-1.2,0.1-1.9,0.5l-0.2,0.1c-1.5,0.7-2.6,2-2.7,2.2l-9.7,7.8
		c-0.6-0.4-2.5-1.6-4.6-1.3c-1.7,0.3-3.3,1.4-4.3,2.4c-0.9,0.9-2.2,3.2-1,4.3c1.1,1,2.6,0.4,3.6-0.2c-0.1,0.2-0.3,0.4-0.3,0.7
		c-0.2,0.6-0.2,1.3,0,2c-1.1,0.7-1.7,2-1.7,3.3c0,2.2,1.8,4,4,4c2.2,0,4-1.8,4-4c0-2.2-1.8-4-4-4c-0.2,0-0.4,0-0.6,0.1
		c-0.1-0.3,0-0.6,0-0.8c0.2-0.7,0.9-1.1,1.2-1.3l4.9,1.8c0.1,0.1,1.3,0.6,2.6,0.6c1.3,0,2.4-0.6,3.2-1.6l0.9,1.8
		c-1.3,0.7-2.1,2-2.1,3.5c0,2.2,1.8,4,4,4c2.2,0,4-1.8,4-4c0-2.2-1.8-4-4-4c-0.1,0-0.1,0-0.2,0l-1.7-3.4c0.4-1.1,0.7-2.5,1-3.7
		c0.7-2.8,1.4-5.7,2.7-7.3l0.3-0.4c1-0.9,2-1.4,2.7-1.4c0.7,0,1.5,0.3,1.6,1.2c0.1,0.7-0.2,1.7-0.8,1.9c-0.2,0.1-0.4,0.3-0.4,0.5
		c-0.1,0.2-0.1,0.4,0,0.7c0.2,0.4,0.7,0.6,1.1,0.4C33,40,33.7,38.3,33.4,36.8z M11.2,54.3c0.9,0,1.7,0.8,1.7,1.7
		c0,0.9-0.8,1.7-1.7,1.7c-0.9,0-1.7-0.8-1.7-1.7C9.5,55.1,10.2,54.3,11.2,54.3z M25.3,54.2c1,0,1.8,0.8,1.8,1.8c0,1-0.8,1.8-1.8,1.8
		S23.5,57,23.5,56C23.5,55,24.3,54.2,25.3,54.2z"/>
	<circle fill="#0067c5" cx="43.6" cy="5.5" r="5.5"/>
	<path fill="#0067c5" d="M54.9,35.9c-0.4-3.8-2.5-18.1-3.8-20.3c-1.7-3-5.1-3-5.1-3l-1,0h-2.9l-1,0c0,0-3.4,0-5.1,3
		c-1.2,2.2-1.4,10.6-6,17.3c-0.6,0.8-0.8,1.7,0.3,2.4c1.2,0.8,2.6-0.4,3.4-1.5c4.2-5.3,4.4-9.9,4.4-9.9v13.6l0,0.3l0,19.3
		c0,1.3,1.1,2.4,2.4,2.4c1.3,0,2.4-1.1,2.4-2.4V37.6c0,0,0,0,0,0c0,0,0,0,0,0c0,0,0-0.6,0.6-0.6c0.7,0,0.6,0.6,0.6,0.6c0,0,0,0,0,0
		c0,0,0,0,0,0v19.5c0,1.3,1.1,2.4,2.4,2.4c1.3,0,2.4-1.1,2.4-2.4l0-19.6h0V23.9c0,0,2,11.5,2.1,12.3c0.3,1.4,1.1,2.1,2.2,2
		C54.6,38,55,36.9,54.9,35.9z"/>
</g>
</svg>
