<?xml version="1.0" encoding="utf-8"?>
<!-- Generator: Adobe Illustrator 17.1.0, SVG Export Plug-In . SVG Version: 6.00 Build 0)  -->
<!DOCTYPE svg PUBLIC "-//W3C//DTD SVG 1.1//EN" "http://www.w3.org/Graphics/SVG/1.1/DTD/svg11.dtd">
<svg version="1.1" id="Layer_1" xmlns="http://www.w3.org/2000/svg" xmlns:xlink="http://www.w3.org/1999/xlink" x="0px" y="0px"
	 width="60px" height="60px" viewBox="0 0 60 60" enable-background="new 0 0 60 60" xml:space="preserve">
<g>
	<circle fill="#0067c5" cx="713.9" cy="-36.7" r="6.9"/>
	<path fill="#C22026" d="M704.2-2.5c-5.9,0-5.7-7.2-5-13.6c0.7-6.8,3.8-14.8,8.6-14c4.8,0.8,4.1,5.8,4.1,5.9
		c0.9,0.3,2.1,0.5,3.3,0.5c0,0,2.7-0.1,4.7-0.9c0.5-0.2,1.1-0.4,1.6-0.6l-1.3-1.9l0.5-0.4l1.4,2.1c1.2-0.3,2.3-0.3,3,0.5
		c0.5,0.6,0.9,2-0.4,3.3l1.2,1.7l-0.5,0.4l-1.2-1.7c-1,0.8-2.7,1.4-5.5,1.8c-3,0.4-5.5,0.1-7.5-0.5l-1.2,10.2c0,0,0.6,0.1,3.9,0.3
		v-0.8v-1.9V-14h-2v-3.7h31.5v3.7h-2v1.9v1.9v23.5h-4.5v-23.5h-18.7v1.3c2.7,0.9,3,2.9,3,2.9s3.4,12.1,3.6,13c0.2,1,1.6,5.2-1.7,6.2
		c-3.6,1.1-4.5-2.1-5-3.5v3.5H714l-0.2-15.9C712.4-2.6,709.2-2.5,704.2-2.5z"/>
	<path fill="#C22026" d="M691.8-28.5v26v3.3v12.8h2.9V9.3h11.7v4h2.8V0.8h1.3v-3.3h-1.3h-2.8h-11.7v-26H691.8z M694.7,0.8h11.7V7
		h-11.7V0.8z"/>
	<rect x="719.6" y="-18.6" fill="#C22026" width="10.8" height="0.3"/>
</g>
<g>
	<g>
		<path fill="#C22026" d="M30.9,30.1l-9.7-7.3C19,21,19,19.5,18.2,17.5c0,0-0.4-0.1-0.4-0.1l0.4,0.1c-0.7-1.8-2.1-3.2-4.2-3.4
			c-2.9-0.3-5.4,1.8-5.7,4.7L7,32.9c-0.2,2.3,1.1,4.4,3.1,5.3v19.1c0,1.5,1.2,2.8,2.8,2.8s2.8-1.2,2.8-2.8v-20c1-0.8,1.6-2,1.8-3.4
			l0.8-8.6l9.6,7.2c1.2,0.7,1.9,1,2.8,0.3C31.5,32.1,31.6,30.9,30.9,30.1z"/>
		<circle fill="#C22026" cx="16.9" cy="6.2" r="6.2"/>
	</g>
	<g>
		<path fill="#C22026" d="M28.6,30.1l9.7-7.3c2.2-1.7,2.2-3.2,2.9-5.3c0,0,0.4-0.1,0.4-0.1l-0.4,0.1c0.7-1.8,2.1-3.2,4.2-3.4
			c2.9-0.3,5.4,1.8,5.7,4.7l1.3,14c0.2,2.3-1.1,4.4-3.1,5.3v19.1c0,1.5-1.2,2.8-2.8,2.8c-1.5,0-2.8-1.2-2.8-2.8v-20
			c-1-0.8-1.6-2-1.8-3.4l-0.8-8.6l-9.6,7.2c-1.2,0.7-1.9,1-2.8,0.3C28.1,32.1,27.9,30.9,28.6,30.1z"/>
		<circle fill="#C22026" cx="42.7" cy="6.2" r="6.2"/>
	</g>
	<path fill="#C22026" d="M28.9,40.1h-2.2c0-2.8-2.3-5-5-5c-2.8,0-5,2.3-5,5h-2.2c-0.2,0-0.3,0.2-0.3,0.3v9.7c0,0.2,0.2,0.3,0.3,0.3
		h14.4c0.2,0,0.3-0.2,0.3-0.3v-9.7C29.3,40.2,29.1,40.1,28.9,40.1z M21.7,36.4c2,0,3.7,1.6,3.7,3.7h-7.3
		C18.1,38.1,19.7,36.4,21.7,36.4z"/>
	<path fill="#C22026" d="M22.9,36.6c0.4,0.9,0,2.1-0.9,2.5l0,0c-0.9,0.4-2.1,0-2.5-0.9l-7.3-15.4c-0.4-0.9,0-2.1,0.9-2.5l0,0
		c0.9-0.4,2.1,0,2.5,0.9L22.9,36.6z"/>
</g>
</svg>
