<?xml version="1.0" encoding="utf-8"?>
<!-- Generator: Adobe Illustrator 17.1.0, SVG Export Plug-In . SVG Version: 6.00 Build 0)  -->
<!DOCTYPE svg PUBLIC "-//W3C//DTD SVG 1.1//EN" "http://www.w3.org/Graphics/SVG/1.1/DTD/svg11.dtd">
<svg version="1.1" id="Layer_1" xmlns="http://www.w3.org/2000/svg" xmlns:xlink="http://www.w3.org/1999/xlink" x="0px" y="0px"
	 width="60px" height="60px" viewBox="0 0 60 60" enable-background="new 0 0 60 60" xml:space="preserve">
<g>
	<circle fill="#C22026" cx="713.9" cy="-36.7" r="6.9"/>
	<path fill="#C22026" d="M704.2-2.5c-5.9,0-5.7-7.2-5-13.6c0.7-6.8,3.8-14.8,8.6-14c4.8,0.8,4.1,5.8,4.1,5.9
		c0.9,0.3,2.1,0.5,3.3,0.5c0,0,2.7-0.1,4.7-0.9c0.5-0.2,1.1-0.4,1.6-0.6l-1.3-1.9l0.5-0.4l1.4,2.1c1.2-0.3,2.3-0.3,3,0.5
		c0.5,0.6,0.9,2-0.4,3.3l1.2,1.7l-0.5,0.4l-1.2-1.7c-1,0.8-2.7,1.4-5.5,1.8c-3,0.4-5.5,0.1-7.5-0.5l-1.2,10.2c0,0,0.6,0.1,3.9,0.3
		v-0.8v-1.9V-14h-2v-3.7h31.5v3.7h-2v1.9v1.9v23.5h-4.5v-23.5h-18.7v1.3c2.7,0.9,3,2.9,3,2.9s3.4,12.1,3.6,13c0.2,1,1.6,5.2-1.7,6.2
		c-3.6,1.1-4.5-2.1-5-3.5v3.5H714l-0.2-15.9C712.4-2.6,709.2-2.5,704.2-2.5z"/>
	<path fill="#C22026" d="M691.8-28.5v26v3.3v12.8h2.9V9.3h11.7v4h2.8V0.8h1.3v-3.3h-1.3h-2.8h-11.7v-26H691.8z M694.7,0.8h11.7V7
		h-11.7V0.8z"/>
	<rect x="719.6" y="-18.6" fill="#C22026" width="10.8" height="0.3"/>
</g>
<g>
	<path fill="#C22026" d="M32.1,32.8c6.5,0,11.8-5.3,11.8-11.8c0-6.5-5.3-11.8-11.8-11.8c-6.5,0-11.7,5.3-11.7,11.8
		C20.3,27.5,25.6,32.8,32.1,32.8z"/>
	<path fill="#C22026" d="M44.5,51.3c0,0,0.2-16.3-14.4-16.3H15.8C6.2,35,0,40.1,0,51.3c0,0.3,0,0,0,0H44.5z"/>
	<path fill="#C22026" d="M59.8,41.8l-6.5-13.1c3.2-2.6,4.3-7.1,2.4-10.9c-1.5-3-4.6-4.9-8-4.9c-1.4,0-2.7,0.3-4,0.9
		c-4.4,2.2-6.2,7.6-4,12c1.5,3,4.6,4.9,8,4.9c0.9,0,1.8-0.2,2.7-0.5l6.5,13.1c0.4,0.8,1.4,1.1,2.1,0.7
		C59.9,43.5,60.2,42.6,59.8,41.8z M42.2,24.5c-1.5-3-0.3-6.7,2.8-8.3c0.9-0.4,1.8-0.6,2.7-0.6c2.4,0,4.5,1.3,5.5,3.4
		c1.5,3,0.3,6.7-2.8,8.3C47.5,28.7,43.7,27.4,42.2,24.5z"/>
	<path fill="#C22026" d="M56,51.3l2.8-11.9c0.5-2.3-0.9-4.5-3.1-5c-2.3-0.5-4.5,0.9-5,3.1l-3.3,13.8H56z"/>
</g>
</svg>
