<?xml version="1.0" encoding="utf-8"?>
<!-- Generator: Adobe Illustrator 17.1.0, SVG Export Plug-In . SVG Version: 6.00 Build 0)  -->
<!DOCTYPE svg PUBLIC "-//W3C//DTD SVG 1.1//EN" "http://www.w3.org/Graphics/SVG/1.1/DTD/svg11.dtd">
<svg version="1.1" id="Layer_1" xmlns="http://www.w3.org/2000/svg" xmlns:xlink="http://www.w3.org/1999/xlink" x="0px" y="0px"
	 width="60px" height="60px" viewBox="0 0 60 60" enable-background="new 0 0 60 60" xml:space="preserve">
<g>
	<circle fill="#0067c5" cx="713.9" cy="-36.7" r="6.9"/>
	<path fill="#0067c5" d="M704.2-2.5c-5.9,0-5.7-7.2-5-13.6c0.7-6.8,3.8-14.8,8.6-14c4.8,0.8,4.1,5.8,4.1,5.9
		c0.9,0.3,2.1,0.5,3.3,0.5c0,0,2.7-0.1,4.7-0.9c0.5-0.2,1.1-0.4,1.6-0.6l-1.3-1.9l0.5-0.4l1.4,2.1c1.2-0.3,2.3-0.3,3,0.5
		c0.5,0.6,0.9,2-0.4,3.3l1.2,1.7l-0.5,0.4l-1.2-1.7c-1,0.8-2.7,1.4-5.5,1.8c-3,0.4-5.5,0.1-7.5-0.5l-1.2,10.2c0,0,0.6,0.1,3.9,0.3
		v-0.8v-1.9V-14h-2v-3.7h31.5v3.7h-2v1.9v1.9v23.5h-4.5v-23.5h-18.7v1.3c2.7,0.9,3,2.9,3,2.9s3.4,12.1,3.6,13c0.2,1,1.6,5.2-1.7,6.2
		c-3.6,1.1-4.5-2.1-5-3.5v3.5H714l-0.2-15.9C712.4-2.6,709.2-2.5,704.2-2.5z"/>
	<path fill="#0067c5" d="M691.8-28.5v26v3.3v12.8h2.9V9.3h11.7v4h2.8V0.8h1.3v-3.3h-1.3h-2.8h-11.7v-26H691.8z M694.7,0.8h11.7V7
		h-11.7V0.8z"/>
	<rect x="719.6" y="-18.6" fill="#0067c5" width="10.8" height="0.3"/>
</g>
<g>
	<polygon fill="#0067c5" points="46.9,8.6 42.2,25.1 25.2,25.1 25.2,29.2 45.8,29.2 45.8,25.1 50.5,8.6 	"/>
	<polygon fill="#0067c5" points="40.2,60 40.2,34.7 34.1,34.7 31.7,34.7 25.2,34.7 25.2,29.2 57.2,29.2 57.2,34.7 51.8,34.7 
		51.8,60 	"/>
	<g>
		<circle fill="#0067c5" cx="18.6" cy="6.9" r="6.9"/>
		<path fill="#0067c5" d="M16.5,27.2c0,1.1,0.9,2,2,2h15.2c1.1,0,2-0.9,2-2l0,0c0-1.1-0.9-2-2-2H18.5C17.4,25.2,16.5,26.1,16.5,27.2
			L16.5,27.2z"/>
		<path fill="#0067c5" d="M6.9,35.9l2.2-14.8c0.5-3.3,3.6-5.6,6.9-5.1c3.3,0.5,5.6,3.6,5.1,6.9l-1.9,12.4h8.4c1.3,0,2.4,0.5,3.2,1.3
			c0.7,0.6,1.1,1.5,1,2.4c0,0,0,0,0,0.1c0,0.3-0.1,0.6-0.1,0.9l-2.9,17.3c-0.3,1.8-2,2.9-3.7,2.6c-1.8-0.3-2.9-2-2.6-3.7l2.2-13.3
			H12.8c-0.1,0-0.1,0-0.2,0c0,0-0.1,0-0.1,0c-0.2,0-0.3,0-0.5,0c0,0-0.1,0-0.1,0C8.7,42.3,6.4,39.2,6.9,35.9z"/>
		<g>
			<polygon fill="#0067c5" points="5.5,25.2 5.5,42.7 19.9,42.7 19.9,45.4 13.1,45.4 13.1,51.9 11.8,51.9 11.8,55.9 15,55.9 
				15,57.1 7.7,57.1 7.7,55.9 10.9,55.9 10.9,51.9 9.6,51.9 9.6,45.4 5.5,45.4 2.8,45.4 2.8,42.7 2.8,25.2 			"/>
			<circle fill="#0067c5" cx="14.6" cy="58.8" r="0.9"/>
			<circle fill="#0067c5" cx="11.4" cy="58.8" r="0.9"/>
			<circle fill="#0067c5" cx="7.9" cy="58.8" r="0.9"/>
		</g>
	</g>
</g>
</svg>
