<?xml version="1.0" encoding="utf-8"?>
<!-- Generator: Adobe Illustrator 17.1.0, SVG Export Plug-In . SVG Version: 6.00 Build 0)  -->
<!DOCTYPE svg PUBLIC "-//W3C//DTD SVG 1.1//EN" "http://www.w3.org/Graphics/SVG/1.1/DTD/svg11.dtd">
<svg version="1.1" id="Layer_1" xmlns="http://www.w3.org/2000/svg" xmlns:xlink="http://www.w3.org/1999/xlink" x="0px" y="0px"
	 width="60px" height="60px" viewBox="0 0 60 60" enable-background="new 0 0 60 60" xml:space="preserve">
<g>
	<circle fill="#C22026" cx="713.9" cy="-36.7" r="6.9"/>
	<path fill="#C22026" d="M704.2-2.5c-5.9,0-5.7-7.2-5-13.6c0.7-6.8,3.8-14.8,8.6-14c4.8,0.8,4.1,5.8,4.1,5.9
		c0.9,0.3,2.1,0.5,3.3,0.5c0,0,2.7-0.1,4.7-0.9c0.5-0.2,1.1-0.4,1.6-0.6l-1.3-1.9l0.5-0.4l1.4,2.1c1.2-0.3,2.3-0.3,3,0.5
		c0.5,0.6,0.9,2-0.4,3.3l1.2,1.7l-0.5,0.4l-1.2-1.7c-1,0.8-2.7,1.4-5.5,1.8c-3,0.4-5.5,0.1-7.5-0.5l-1.2,10.2c0,0,0.6,0.1,3.9,0.3
		v-0.8v-1.9V-14h-2v-3.7h31.5v3.7h-2v1.9v1.9v23.5h-4.5v-23.5h-18.7v1.3c2.7,0.9,3,2.9,3,2.9s3.4,12.1,3.6,13c0.2,1,1.6,5.2-1.7,6.2
		c-3.6,1.1-4.5-2.1-5-3.5v3.5H714l-0.2-15.9C712.4-2.6,709.2-2.5,704.2-2.5z"/>
	<path fill="#C22026" d="M691.8-28.5v26v3.3v12.8h2.9V9.3h11.7v4h2.8V0.8h1.3v-3.3h-1.3h-2.8h-11.7v-26H691.8z M694.7,0.8h11.7V7
		h-11.7V0.8z"/>
	<rect x="719.6" y="-18.6" fill="#C22026" width="10.8" height="0.3"/>
</g>
<g>
	<path fill="#C22026" d="M30,24l11.2-4.1c0.6-1.4,0.9-3,0.9-4.6c0-6.7-5.4-12.1-12.1-12.1c-6.7,0-12.1,5.4-12.1,12.1
		c0,1.6,0.3,3.2,0.9,4.6L30,24z"/>
	<path fill="#C22026" d="M16.5,36.4c0,2.4-1.9,4.3-4.3,4.3H8.1c-2.4,0-4.3-1.9-4.3-4.3l0,0c0-2.4,1.9-4.3,4.3-4.3h4.1
		C14.6,32.1,16.5,34,16.5,36.4L16.5,36.4z"/>
	<path fill="#C22026" d="M56.2,36.4c0,2.4-1.9,4.3-4.3,4.3h-4.1c-2.4,0-4.3-1.9-4.3-4.3l0,0c0-2.4,1.9-4.3,4.3-4.3h4.1
		C54.2,32.1,56.2,34,56.2,36.4L56.2,36.4z"/>
	<path fill="#C22026" d="M47.7,42c-3.1,0-5.7-2.5-5.7-5.7s2.5-5.7,5.7-5.7h2.6V18.2L30,25.6L9.7,18.2v12.5h2.7
		c3.1,0,5.7,2.5,5.7,5.7S15.5,42,12.4,42H9.7v6.9L30,58.2l20.3-9.3V42H47.7z M32.6,30.7L46,25.6v1.8l-13.4,5.1V30.7z M40.8,48.3
		L32.6,52V51l8.2-3.7V48.3z M40.8,45.5l-8.2,3.2v-0.9l8.2-3.2V45.5z M40.8,42.6l-8.2,3v-0.9l8.2-3V42.6z M40.8,39.7l-8.2,3.1v-0.9
		l8.2-3.1V39.7z M40.8,36.8L32.6,40v-0.9l8.2-3.2V36.8z M40.8,34.1l-8.2,3.1v-0.9l8.2-3.1V34.1z"/>
</g>
</svg>
