<?xml version="1.0" encoding="utf-8"?>
<!-- Generator: Adobe Illustrator 17.1.0, SVG Export Plug-In . SVG Version: 6.00 Build 0)  -->
<!DOCTYPE svg PUBLIC "-//W3C//DTD SVG 1.1//EN" "http://www.w3.org/Graphics/SVG/1.1/DTD/svg11.dtd">
<svg version="1.1" id="Layer_1" xmlns="http://www.w3.org/2000/svg" xmlns:xlink="http://www.w3.org/1999/xlink" x="0px" y="0px"
	 width="60px" height="60px" viewBox="0 0 60 60" enable-background="new 0 0 60 60" xml:space="preserve">
<g>
	<circle fill="#C22026" cx="713.9" cy="-36.7" r="6.9"/>
	<path fill="#C22026" d="M704.2-2.5c-5.9,0-5.7-7.2-5-13.6c0.7-6.8,3.8-14.8,8.6-14c4.8,0.8,4.1,5.8,4.1,5.9
		c0.9,0.3,2.1,0.5,3.3,0.5c0,0,2.7-0.1,4.7-0.9c0.5-0.2,1.1-0.4,1.6-0.6l-1.3-1.9l0.5-0.4l1.4,2.1c1.2-0.3,2.3-0.3,3,0.5
		c0.5,0.6,0.9,2-0.4,3.3l1.2,1.7l-0.5,0.4l-1.2-1.7c-1,0.8-2.7,1.4-5.5,1.8c-3,0.4-5.5,0.1-7.5-0.5l-1.2,10.2c0,0,0.6,0.1,3.9,0.3
		v-0.8v-1.9V-14h-2v-3.7h31.5v3.7h-2v1.9v1.9v23.5h-4.5v-23.5h-18.7v1.3c2.7,0.9,3,2.9,3,2.9s3.4,12.1,3.6,13c0.2,1,1.6,5.2-1.7,6.2
		c-3.6,1.1-4.5-2.1-5-3.5v3.5H714l-0.2-15.9C712.4-2.6,709.2-2.5,704.2-2.5z"/>
	<path fill="#C22026" d="M691.8-28.5v26v3.3v12.8h2.9V9.3h11.7v4h2.8V0.8h1.3v-3.3h-1.3h-2.8h-11.7v-26H691.8z M694.7,0.8h11.7V7
		h-11.7V0.8z"/>
	<rect x="719.6" y="-18.6" fill="#C22026" width="10.8" height="0.3"/>
</g>
<g>
	<path fill="#C22026" d="M15.2,30.9h3.3c0,0-0.2-3.1-0.6-3.8L17.9,27c-0.4-0.4-1.4-0.9-2-1.2l-0.4-0.2v-0.9c0.5-0.6,0.8-1.5,0.8-2.3
		c0-1.4-0.9-2-1.9-2c-0.8,0-1.9,0.7-1.9,2c0,0.8,0.3,1.7,0.8,2.3v0.8v0.2l-0.3,0.2c-0.6,0.2-1.8,0.8-2.1,1.2
		c-0.4,0.6-0.6,3.9-0.6,3.9h3.3H15.2z"/>
	<path fill="#C22026" d="M35,25.5c0.3-0.4,0.4-0.9,0.2-1.3c-0.1-0.2-0.4-0.4-0.6-0.4c0,0,0,0-0.1,0c-0.1,0-0.3,0-0.4,0.2
		c-0.2,0.3,0,0.7,0.2,1C34.6,25.2,34.8,25.4,35,25.5z"/>
	<path fill="#C22026" d="M38,24.8c0-0.1,0.1-0.1,0.1-0.2c0.2-0.4,0.2-0.7,0.1-0.9c-0.1-0.2-0.3-0.3-0.4-0.3c0,0-0.1,0-0.1,0
		c-0.2,0.1-0.3,0.4-0.2,0.6C37.5,24.2,37.7,24.5,38,24.8z"/>
	<path fill="#C22026" d="M29.8,26.1c0.3-0.2,0.7-0.4,1-0.6c0.4-0.3,0.6-0.6,0.6-0.9c0-0.3-0.2-0.5-0.4-0.7c-0.2-0.1-0.5-0.2-0.7-0.2
		c-0.2,0-0.4,0.1-0.6,0.2C29.2,24,29,24.5,29,24.9C29.1,25.3,29.3,25.8,29.8,26.1z"/>
	<path fill="#C22026" d="M42.7,25.7C42.7,25.7,42.7,25.6,42.7,25.7c0.2-0.6,0-1.1-0.4-1.3c-0.1,0-0.1,0-0.2,0
		c-0.1,0-0.3,0.1-0.4,0.1c-0.1,0.1-0.3,0.2-0.2,0.4c0,0.3,0.3,0.5,0.6,0.7C42.2,25.6,42.5,25.7,42.7,25.7z"/>
	<path fill="#C22026" d="M56.7,12.8H3.5c-0.5,0-0.9,0.4-0.9,0.9v33.9c0,0.5,0.4,0.9,0.9,0.9h53.2c0.5,0,0.9-0.4,0.9-0.9V13.7
		C57.6,13.2,57.2,12.8,56.7,12.8z M20.7,32.5H8.2V18.4h12.5V32.5z M26.1,21.9c0.9-0.6,2.1-0.6,3-0.1c0.2,0.1,0.3,0.4,0.2,0.6
		c-0.1,0.2-0.4,0.3-0.6,0.2c-0.6-0.3-1.4-0.3-2,0.1c-0.6,0.4-0.9,1.1-0.8,1.8c0.1,0.9,1,1.7,2,1.9c0.3,0,0.6,0,0.9,0
		c-0.4-0.4-0.6-0.9-0.6-1.4c-0.1-0.8,0.4-1.7,1.1-2.1c0.7-0.4,1.6-0.4,2.3,0.1c0.6,0.4,0.9,1,0.9,1.6c0,0.6-0.4,1.1-1,1.6
		c-0.1,0.1-0.3,0.2-0.4,0.3c0.3,0,0.6,0.1,0.9,0.1c1,0,1.8-0.1,2.4-0.4c-0.2-0.1-0.4-0.3-0.5-0.5c-0.5-0.6-0.8-1.5-0.3-2.2
		c0.3-0.4,0.8-0.6,1.3-0.6c0.6,0,1.2,0.4,1.4,0.9c0.3,0.7,0.2,1.4-0.2,2c0.1,0,0.3,0,0.4,0c0.3,0,0.6-0.2,0.9-0.3
		c-0.3-0.4-0.7-0.8-0.8-1.3c-0.1-0.6,0.1-1.4,0.8-1.7c0.6-0.2,1.4,0.1,1.7,0.8c0.2,0.5,0.2,1.1-0.1,1.7c-0.1,0.2-0.2,0.3-0.3,0.4
		c0.3,0.3,0.6,0.5,1,0.7c0.4,0.2,1.1,0.5,1.8,0.4c0.1,0,0.2,0,0.3-0.1c0,0,0,0,0,0c-0.7-0.3-1.2-0.8-1.2-1.5c0-0.5,0.2-0.9,0.6-1.3
		c0.5-0.3,1.1-0.4,1.5-0.2c0.8,0.3,1.3,1.3,1.1,2.2c0.5,0,1-0.1,1.3-0.3c0.2-0.1,0.4-0.4,0.4-0.7c0-0.1,0-0.3-0.1-0.4
		c-0.2-0.2-0.1-0.5,0.1-0.7c0.2-0.2,0.5-0.1,0.7,0.1c0.3,0.3,0.4,0.7,0.3,1.1c-0.1,0.5-0.4,1-0.8,1.3c-0.7,0.5-1.6,0.5-2.3,0.5
		c0,0-0.1,0-0.1,0c-0.4,0.4-1,0.7-1.6,0.8c-0.7,0.1-1.5-0.1-2.4-0.5c-0.4-0.2-0.8-0.5-1.2-0.8c-0.4,0.3-1,0.6-1.5,0.6
		c-0.4,0.1-0.9,0-1.3-0.1c-0.8,0.6-1.8,0.9-3.2,0.9c-0.1,0-0.1,0-0.2,0c-0.6,0-1.4-0.1-2.1-0.4c-0.7,0.2-1.4,0.3-2,0.2
		c-1.5-0.2-2.7-1.4-2.8-2.7C24.7,23.6,25.2,22.5,26.1,21.9z M40.4,40.8H25.3v-0.9h15.1V40.8z M51.8,36.8H25.3v-0.9h26.5V36.8z
		 M51.8,32.7H25.3v-0.9h26.5V32.7z"/>
</g>
</svg>
