<?xml version="1.0" encoding="utf-8"?>
<!-- Generator: Adobe Illustrator 17.1.0, SVG Export Plug-In . SVG Version: 6.00 Build 0)  -->
<!DOCTYPE svg PUBLIC "-//W3C//DTD SVG 1.1//EN" "http://www.w3.org/Graphics/SVG/1.1/DTD/svg11.dtd">
<svg version="1.1" id="Layer_1" xmlns="http://www.w3.org/2000/svg" xmlns:xlink="http://www.w3.org/1999/xlink" x="0px" y="0px"
	 width="60px" height="60px" viewBox="0 0 60 60" enable-background="new 0 0 60 60" xml:space="preserve">
<g>
	<path fill="#0067C5" d="M7,47.8h4.1c0.4-1,1.3-1.8,2.4-2.1V34.5H0.9v12.3c0.7-0.7,1.7-1.2,2.7-1.2C5.1,45.5,6.4,46.5,7,47.8z"/>
	<path fill="#0067C5" d="M38.9,11.7c0-0.2,0-0.4-0.1-0.6h2.9c0,0,0-0.9-3.5-1.7c-0.8-1.2-2.1-2.1-3.7-2.1c-2.4,0-4.3,1.9-4.3,4.3
		s1.9,4.3,4.3,4.3c0.3,0,0.6,0,0.9-0.1C37.4,15.6,38.8,13.9,38.9,11.7L38.9,11.7C38.9,11.8,38.9,11.8,38.9,11.7z"/>
	<g>
		<path fill="#0067C5" d="M57.9,17.9l-0.6-0.4l-1.5,2.3c-1-1.4-2.6-2.3-4.4-2.3c-3,0-5.4,2.4-5.4,5.4v7.9h4.7v21.6h1.4V30.9h4.7
			v-7.9c0-0.9-0.2-1.7-0.6-2.4l0.9-1.4l1.9,1.3l0.8-1.2L57.9,17.9z M55.2,25.4h-7.8v-1h7.8V25.4z"/>
	</g>
	<path fill="#0067C5" d="M36.7,35c0,0-2.1-2.1-3-2.6l0.1-1.8c0,0,0.7,0.6,1.7,1.2c0,0,1.6,1,3.3,1.5c0,0,0,0,0,0
		c0.9,0.2,1.7,0.1,2-0.7c0.2-0.4,0.1-0.8,0-1.1c0,0-0.3-0.7-2.8-1.9c-1.4-0.7-2.7-1.4-2.8-2.4c-0.2-2.3,3.3-7.5,0.2-9.2
		c0,0-2-1.2-5.3-0.4c-3.3,0.8-6.9,3.7-8.5,6.1c-1.6,2.2-3.1,5.7-1.9,6.8l-4.1,15.8c-0.3-0.1-0.6-0.2-1-0.2c-1.5,0-2.7,1-3.1,2.3H6.7
		c-0.4-1.4-1.6-2.3-3.1-2.3c-1.8,0-3.2,1.4-3.2,3.2c0,1.8,1.4,3.2,3.2,3.2c1.6,0,2.9-1.1,3.1-2.6h4.6c0.3,1.5,1.6,2.6,3.1,2.6
		c1.8,0,3.2-1.4,3.2-3.2c0-1.1-0.6-2.1-1.4-2.7l4.1-15.8c1.2,0.1,1.9-2,2.6-3.3c1-1.9,3.7-5,5.1-5.1c0,0-3.1,8.1-0.8,11.5
		c1.8,2.7,1.7,4,1.5,5.6c-0.3,1.6-1.3,5.3-5.1,8.4c-1.8,1.4-1.4,3.2-0.8,4c0.7,0.7,2.9,1.5,5.4-1.5c2.5-3,5.3-6.3,5.6-10.9
		c0,0,3.3,1.2,4.3,7.9c0.7,4.8,2.5,5.3,3.6,5.1c1-0.2,2-1.4,1.1-5.2C41.9,43.1,40.6,38.9,36.7,35z M3.6,50.5c-0.6,0-1.1-0.5-1.1-1.1
		c0-0.6,0.5-1.1,1.1-1.1c0.6,0,1.1,0.5,1.1,1.1C4.7,50,4.2,50.5,3.6,50.5z M14.5,50.5c-0.6,0-1.1-0.5-1.1-1.1c0-0.6,0.5-1.1,1.1-1.1
		s1.1,0.5,1.1,1.1C15.7,50,15.1,50.5,14.5,50.5z"/>
	<polygon fill="#0067C5" points="37.6,30.5 40.6,29.4 43.7,30.4 39.8,32.5 	"/>
</g>
</svg>
