<?xml version="1.0" encoding="utf-8"?>
<!-- Generator: Adobe Illustrator 17.1.0, SVG Export Plug-In . SVG Version: 6.00 Build 0)  -->
<!DOCTYPE svg PUBLIC "-//W3C//DTD SVG 1.1//EN" "http://www.w3.org/Graphics/SVG/1.1/DTD/svg11.dtd">
<svg version="1.1" id="Layer_1" xmlns="http://www.w3.org/2000/svg" xmlns:xlink="http://www.w3.org/1999/xlink" x="0px" y="0px"
	 width="60px" height="60px" viewBox="0 0 60 60" enable-background="new 0 0 60 60" xml:space="preserve">
<g>
	<g>
		<path fill="#C22026" d="M6.7,49.8h4.2c0.4-1,1.3-1.8,2.4-2.1V36.4H0.5v12.4c0.7-0.8,1.7-1.2,2.8-1.2C4.8,47.6,6.1,48.5,6.7,49.8z"
			/>
		<g>
			<path fill="#C22026" d="M38.8,13.4c0-0.2,0-0.4-0.1-0.6h3c0,0,0-0.9-3.6-1.7C37.4,9.9,36,9,34.4,9C32,9,30,11,30,13.4
				s2,4.4,4.4,4.4c0.3,0,0.6,0,0.9-0.1C37.3,17.3,38.8,15.6,38.8,13.4L38.8,13.4C38.8,13.5,38.8,13.4,38.8,13.4z"/>
			<path fill="#C22026" d="M42.9,49.2c-1-4.2-2.3-8.4-6.2-12.4l-0.5-0.4l1.8-1.6c0.3,0.1,0.5,0.2,0.7,0.2c0,0,0,0,0.1,0l0,0
				c0.9,0.2,1.7,0.1,2-0.7c0.2-0.4,0.1-0.8,0-1.1c0,0-0.1-0.2-0.4-0.5l2-1.7c0.1-0.1,0.2-0.3,0.2-0.5c0-0.3-0.1-0.5-0.3-0.8
				s-0.5-0.4-0.8-0.4l0,0c-0.2,0-0.4,0-0.4,0.1l-2.5,2.1c-0.2-0.1-0.4-0.2-0.6-0.3c-1.4-0.7-2.7-1.4-2.8-2.5
				c-0.2-2.4,3.3-7.6,0.2-9.3c0,0-2.1-1.2-5.4-0.4s-7,4-8.7,6.4c-1.6,2.3-3.1,5.7-2,6.9l-4.1,16c-0.3-0.1-0.6-0.2-1-0.2
				c-1.5,0-2.7,1-3.1,2.4H6.3c-0.4-1.4-1.6-2.4-3.1-2.4c-1.8,0-3.2,1.4-3.2,3.2s1.4,3.2,3.2,3.2c1.6,0,2.9-1.1,3.2-2.7h4.7
				c0.3,1.5,1.6,2.7,3.2,2.7c1.8,0,3.2-1.4,3.2-3.2c0-1.1-0.6-2.1-1.5-2.7l4.1-16c1.2,0.1,1.9-2,2.6-3.3c1.1-1.9,3.7-5.1,5.1-5.2
				c0,0-3.1,8.2-0.8,11.6c1.9,2.8,1.8,4.1,1.5,5.7c-0.3,1.6-1.4,5.3-5.1,8.5c-1.8,1.4-1.4,3.2-0.8,4c0.7,0.7,2.9,1.5,5.4-1.5
				s5.4-6.3,5.7-11c0,0,3.4,1.2,4.4,8c0.7,4.3,2.5,5.3,3.6,5.2C43.1,54.3,43.8,53,42.9,49.2z M3.2,52.4c-0.6,0-1.1-0.5-1.1-1.1
				s0.5-1.1,1.1-1.1s1.1,0.5,1.1,1.1C4.4,51.9,3.9,52.4,3.2,52.4z M14.2,52.4c-0.6,0-1.1-0.5-1.1-1.1s0.5-1.1,1.1-1.1
				s1.1,0.5,1.1,1.1C15.4,51.9,14.9,52.4,14.2,52.4z M33.7,32.4c0,0,0.7,0.6,1.7,1.2c0,0,0.2,0.1,0.5,0.3L34.6,35l-0.4-0.4
				c-0.2-0.1-0.3-0.3-0.5-0.4L33.7,32.4z"/>
		</g>
	</g>
	<g>
		<path fill="#C22026" d="M58.1,19.7l-0.6-0.4l-1.6,2.3c-1-1.4-2.6-2.3-4.5-2.3c-3,0-5.5,2.4-5.5,5.5v8h4.7v21.8h1.5V32.7h4.7v-8
			c0-0.9-0.2-1.7-0.6-2.4l1-1.4l1.9,1.3L60,21L58.1,19.7z M55.4,27.3h-7.9v-1h7.9V27.3z"/>
	</g>
</g>
</svg>
