<?xml version="1.0" encoding="utf-8"?>
<!-- Generator: Adobe Illustrator 17.1.0, SVG Export Plug-In . SVG Version: 6.00 Build 0)  -->
<!DOCTYPE svg PUBLIC "-//W3C//DTD SVG 1.1//EN" "http://www.w3.org/Graphics/SVG/1.1/DTD/svg11.dtd">
<svg version="1.1" id="Layer_1" xmlns="http://www.w3.org/2000/svg" xmlns:xlink="http://www.w3.org/1999/xlink" x="0px" y="0px"
	 width="60px" height="60px" viewBox="0 0 60 60" enable-background="new 0 0 60 60" xml:space="preserve">
<g>
	<circle fill="#0067c5" cx="713.9" cy="-36.7" r="6.9"/>
	<path fill="#0067c5" d="M704.2-2.5c-5.9,0-5.7-7.2-5-13.6c0.7-6.8,3.8-14.8,8.6-14c4.8,0.8,4.1,5.8,4.1,5.9
		c0.9,0.3,2.1,0.5,3.3,0.5c0,0,2.7-0.1,4.7-0.9c0.5-0.2,1.1-0.4,1.6-0.6l-1.3-1.9l0.5-0.4l1.4,2.1c1.2-0.3,2.3-0.3,3,0.5
		c0.5,0.6,0.9,2-0.4,3.3l1.2,1.7l-0.5,0.4l-1.2-1.7c-1,0.8-2.7,1.4-5.5,1.8c-3,0.4-5.5,0.1-7.5-0.5l-1.2,10.2c0,0,0.6,0.1,3.9,0.3
		v-0.8v-1.9V-14h-2v-3.7h31.5v3.7h-2v1.9v1.9v23.5h-4.5v-23.5h-18.7v1.3c2.7,0.9,3,2.9,3,2.9s3.4,12.1,3.6,13c0.2,1,1.6,5.2-1.7,6.2
		c-3.6,1.1-4.5-2.1-5-3.5v3.5H714l-0.2-15.9C712.4-2.6,709.2-2.5,704.2-2.5z"/>
	<path fill="#0067c5" d="M691.8-28.5v26v3.3v12.8h2.9V9.3h11.7v4h2.8V0.8h1.3v-3.3h-1.3h-2.8h-11.7v-26H691.8z M694.7,0.8h11.7V7
		h-11.7V0.8z"/>
	<rect x="719.6" y="-18.6" fill="#0067c5" width="10.8" height="0.3"/>
</g>
<g>
	<path fill="#0067c5" d="M45.3,31.8c-0.9,0-1.6,0.7-1.6,1.6V36L43,36v-4.9c0-0.9-0.7-1.6-1.6-1.6c-0.9,0-1.6,0.7-1.6,1.6v4.8l-0.8,0
		v-6.6c0-0.9-0.7-1.6-1.6-1.6c-0.9,0-1.6,0.7-1.6,1.6v6.6l-1,0V21.9c0-0.9-0.7-1.6-1.6-1.6c-0.9,0-1.6,0.7-1.6,1.6v18.5h-0.9v-7.7
		c0-0.9-0.7-1.6-1.6-1.6c-0.9,0-1.6,0.7-1.6,1.6v8.6v0.5v4l6.1,5.5v4.8h13.2v-2.3V36.1v-2.7C46.9,32.5,46.2,31.8,45.3,31.8z"/>
	<path fill="#0067c5" d="M50.5,46.1H9.7c-3.2,0-5.8-2.6-5.8-5.8V12c0-3.2,2.6-5.8,5.8-5.8h40.8c3.2,0,5.8,2.6,5.8,5.8v28.2
		C56.3,43.5,53.7,46.1,50.5,46.1z M9.9,40.1h40.5V12.2H9.9V40.1z"/>
	<path fill="#0067c5" d="M30.7,26.7V26c-1.9-0.9-3.2-2.9-3.2-5.1c0-3.2,2.6-5.7,5.7-5.7c3.2,0,5.7,2.6,5.7,5.7
		c0,2.2-1.3,4.1-3.1,5.1v0.8c2.2-1,3.8-3.2,3.8-5.8c0-3.5-2.9-6.4-6.4-6.4c-3.5,0-6.4,2.9-6.4,6.4C26.8,23.5,28.4,25.7,30.7,26.7z"
		/>
	<path fill="#0067c5" d="M30.7,24.1v-0.8c-0.6-0.6-1-1.5-1-2.5c0-2,1.6-3.6,3.6-3.6s3.6,1.6,3.6,3.6c0,0.9-0.4,1.7-0.9,2.4v0.9
		c0.9-0.8,1.5-1.9,1.5-3.2c0-2.3-1.9-4.2-4.2-4.2s-4.2,1.9-4.2,4.2C29.1,22.2,29.7,23.4,30.7,24.1z"/>
</g>
</svg>
