<?xml version="1.0" encoding="utf-8"?>
<!-- Generator: Adobe Illustrator 17.1.0, SVG Export Plug-In . SVG Version: 6.00 Build 0)  -->
<!DOCTYPE svg PUBLIC "-//W3C//DTD SVG 1.1//EN" "http://www.w3.org/Graphics/SVG/1.1/DTD/svg11.dtd">
<svg version="1.1" id="Layer_1" xmlns="http://www.w3.org/2000/svg" xmlns:xlink="http://www.w3.org/1999/xlink" x="0px" y="0px"
	 width="60px" height="60px" viewBox="0 0 60 60" enable-background="new 0 0 60 60" xml:space="preserve">
<g>
	<circle fill="#C22026" cx="713.9" cy="-36.7" r="6.9"/>
	<path fill="#C22026" d="M704.2-2.5c-5.9,0-5.7-7.2-5-13.6c0.7-6.8,3.8-14.8,8.6-14c4.8,0.8,4.1,5.8,4.1,5.9
		c0.9,0.3,2.1,0.5,3.3,0.5c0,0,2.7-0.1,4.7-0.9c0.5-0.2,1.1-0.4,1.6-0.6l-1.3-1.9l0.5-0.4l1.4,2.1c1.2-0.3,2.3-0.3,3,0.5
		c0.5,0.6,0.9,2-0.4,3.3l1.2,1.7l-0.5,0.4l-1.2-1.7c-1,0.8-2.7,1.4-5.5,1.8c-3,0.4-5.5,0.1-7.5-0.5l-1.2,10.2c0,0,0.6,0.1,3.9,0.3
		v-0.8v-1.9V-14h-2v-3.7h31.5v3.7h-2v1.9v1.9v23.5h-4.5v-23.5h-18.7v1.3c2.7,0.9,3,2.9,3,2.9s3.4,12.1,3.6,13c0.2,1,1.6,5.2-1.7,6.2
		c-3.6,1.1-4.5-2.1-5-3.5v3.5H714l-0.2-15.9C712.4-2.6,709.2-2.5,704.2-2.5z"/>
	<path fill="#C22026" d="M691.8-28.5v26v3.3v12.8h2.9V9.3h11.7v4h2.8V0.8h1.3v-3.3h-1.3h-2.8h-11.7v-26H691.8z M694.7,0.8h11.7V7
		h-11.7V0.8z"/>
	<rect x="719.6" y="-18.6" fill="#C22026" width="10.8" height="0.3"/>
</g>
<g>
	<path fill="#C22026" d="M37.9,26.9c-11.2,4.9-14.8,3.3-19.7,3.6c-3.1,0.1-7.2,0.7-7.4,2.6c-0.1,0.7,0.1,1.3,0.5,1.8
		c1,1.1,3,1.6,4.2,1.7c1.5,0.1,16.1,0.6,16.3,0.6l-0.1,1.4c-0.1,0-14.8-0.6-16.3-0.6c-1.3-0.1-3.9-0.6-5.2-2.1
		c-0.7-0.8-1-1.8-0.9-2.9c0.3-2.6,3.8-3.5,6.9-3.8l-6.9-6c0,0-1.2-0.9-2-1c0,0-1.8-1.7-3.3-0.4c0,0-2.8-1.1-3.4-0.5
		c-0.6,0.7,0,2.3,0,2.3s-0.9,0.5-0.6,1.4C0.4,26,7.8,35.6,11.1,38.3s9.4,6.5,10.7,7.5c1.2,1,3.8,3,9.8,0.5c6-2.5,13.4-4.6,19.5-2.1
		L60,32.3C60,32.3,50.4,21.4,37.9,26.9z"/>
	<path fill="#C22026" d="M21.4,28.8c3.1,0.1,6.5,0.2,12.8-2.2v-2.8H18.1v4.9l0.1,0.1C19.1,28.8,20.3,28.8,21.4,28.8z"/>
	<rect x="18.1" y="18.9" fill="#C22026" width="16.1" height="2.4"/>
	<rect x="18.1" y="13.8" fill="#C22026" width="16.1" height="2.4"/>
</g>
</svg>
