<?xml version="1.0" encoding="utf-8"?>
<!-- Generator: Adobe Illustrator 17.1.0, SVG Export Plug-In . SVG Version: 6.00 Build 0)  -->
<!DOCTYPE svg PUBLIC "-//W3C//DTD SVG 1.1//EN" "http://www.w3.org/Graphics/SVG/1.1/DTD/svg11.dtd">
<svg version="1.1" id="Layer_1" xmlns="http://www.w3.org/2000/svg" xmlns:xlink="http://www.w3.org/1999/xlink" x="0px" y="0px"
	 width="60px" height="60px" viewBox="0 0 60 60" enable-background="new 0 0 60 60" xml:space="preserve">
<g>
	<circle fill="#0067c5" cx="713.9" cy="-36.7" r="6.9"/>
	<path fill="#0067c5" d="M704.2-2.5c-5.9,0-5.7-7.2-5-13.6c0.7-6.8,3.8-14.8,8.6-14c4.8,0.8,4.1,5.8,4.1,5.9
		c0.9,0.3,2.1,0.5,3.3,0.5c0,0,2.7-0.1,4.7-0.9c0.5-0.2,1.1-0.4,1.6-0.6l-1.3-1.9l0.5-0.4l1.4,2.1c1.2-0.3,2.3-0.3,3,0.5
		c0.5,0.6,0.9,2-0.4,3.3l1.2,1.7l-0.5,0.4l-1.2-1.7c-1,0.8-2.7,1.4-5.5,1.8c-3,0.4-5.5,0.1-7.5-0.5l-1.2,10.2c0,0,0.6,0.1,3.9,0.3
		v-0.8v-1.9V-14h-2v-3.7h31.5v3.7h-2v1.9v1.9v23.5h-4.5v-23.5h-18.7v1.3c2.7,0.9,3,2.9,3,2.9s3.4,12.1,3.6,13c0.2,1,1.6,5.2-1.7,6.2
		c-3.6,1.1-4.5-2.1-5-3.5v3.5H714l-0.2-15.9C712.4-2.6,709.2-2.5,704.2-2.5z"/>
	<path fill="#0067c5" d="M691.8-28.5v26v3.3v12.8h2.9V9.3h11.7v4h2.8V0.8h1.3v-3.3h-1.3h-2.8h-11.7v-26H691.8z M694.7,0.8h11.7V7
		h-11.7V0.8z"/>
	<rect x="719.6" y="-18.6" fill="#0067c5" width="10.8" height="0.3"/>
</g>
<g>
	<path fill="#0067c5" d="M71.2,1190.6H15.2v-33.4h56.1V1190.6z M17.2,1188.6h52.1v-29.4H17.2V1188.6z"/>
	<g>
		
			<rect x="37.4" y="1163.1" transform="matrix(0.7644 -0.6447 0.6447 0.7644 -746.4642 300.3753)" fill="#0067c5" width="0.8" height="17.1"/>
		<circle fill="#0067c5" cx="53" cy="1172.6" r="4.6"/>
		<path fill="#0067c5" d="M62.5,1198.3c-0.3-3.2-2.1-15.1-3.1-16.9c-1.4-2.5-4.2-2.5-4.2-2.5l-0.8,0h-1.2l-2.8,0
			c-2.8,0-3.1-0.2-4.6-1.8c-0.8-0.9-6.2-6.5-6.2-6.5c-0.7-0.7-1.8-0.7-2.5-0.1c-0.7,0.7-0.7,1.8-0.1,2.5l9.8,10.3
			c0.7,0.7,1.4,1.6,1.4,3.5c0,0,0,28.1,0,28.1c0,1.1,0.9,2.1,2.1,2.1c1.1,0,2.1-0.9,2.1-2.1v0v-12v-5.2v-1c0-0.4,0.3-0.7,0.7-0.7
			c0.4,0,0.7,0.3,0.7,0.7v1v5.2v12v0c0,1.1,0.9,2.1,2.1,2.1c1.1,0,2.1-0.9,2.1-2.1v-24.7c0.4,2.5,1.5,7.7,1.6,8.1
			c0.2,1.1,0.9,1.8,1.9,1.7C62.3,1200,62.6,1199.1,62.5,1198.3z"/>
	</g>
</g>
<g>
	<path fill="#0067c5" d="M58,33.5H2V0H58V33.5z M4,31.5H56V2H4V31.5z"/>
	<g>
		
			<rect x="24.2" y="6" transform="matrix(0.7644 -0.6447 0.6447 0.7644 -3.5585 19.2813)" fill="#0067c5" width="0.8" height="17.1"/>
		<circle fill="#0067c5" cx="39.8" cy="15.5" r="4.6"/>
		<path fill="#0067c5" d="M49.3,41.2C49,38,47.2,26.1,46.2,24.3c-1.4-2.5-4.2-2.5-4.2-2.5l-0.8,0h-1.2l-2.8,0
			c-2.8,0-3.1-0.2-4.6-1.8c-0.8-0.9-6.2-6.5-6.2-6.5c-0.7-0.7-1.8-0.7-2.5-0.1c-0.7,0.7-0.7,1.8-0.1,2.5l9.8,10.3
			c0.7,0.7,1.4,1.6,1.4,3.5c0,0,0,28.1,0,28.1c0,1.1,0.9,2.1,2.1,2.1c1.1,0,2.1-0.9,2.1-2.1v0v-12v-5.2v-1c0-0.4,0.3-0.7,0.7-0.7
			c0.4,0,0.7,0.3,0.7,0.7v1v5.2v12v0c0,1.1,0.9,2.1,2.1,2.1c1.1,0,2.1-0.9,2.1-2.1V33.2c0.4,2.5,1.5,7.7,1.6,8.1
			c0.2,1.1,0.9,1.8,1.9,1.7C49.1,42.9,49.4,42,49.3,41.2z"/>
	</g>
</g>
</svg>
