<?xml version="1.0" encoding="utf-8"?>
<!-- Generator: Adobe Illustrator 18.1.1, SVG Export Plug-In . SVG Version: 6.00 Build 0)  -->
<!DOCTYPE svg PUBLIC "-//W3C//DTD SVG 1.1//EN" "http://www.w3.org/Graphics/SVG/1.1/DTD/svg11.dtd">
<svg version="1.1" id="Layer_1" xmlns="http://www.w3.org/2000/svg" xmlns:xlink="http://www.w3.org/1999/xlink" x="0px" y="0px"
	 viewBox="-386 369 32 32" enable-background="new -386 369 32 32" xml:space="preserve">
<path fill="#EB288C" d="M-370,369c-8.8,0-16,7.2-16,16c0,8.8,7.2,16,16,16s16-7.2,16-16C-354,376.2-361.2,369-370,369z M-378,392
	l1-4l5-3v-2c-1-1.1-1.4-2.5-1.4-4.1c0-2.5,1.4-3.9,3.4-3.9c2.1,0,3.4,1.4,3.4,3.9c0,1.5-0.5,3-1.5,4.1v2l5,3l1,4H-378z"/>
</svg>
