<?xml version="1.0" encoding="utf-8"?>
<!-- Generator: Adobe Illustrator 17.0.0, SVG Export Plug-In . SVG Version: 6.00 Build 0)  -->
<!DOCTYPE svg PUBLIC "-//W3C//DTD SVG 1.1//EN" "http://www.w3.org/Graphics/SVG/1.1/DTD/svg11.dtd">
<svg version="1.1" id="Layer_1" xmlns="http://www.w3.org/2000/svg" xmlns:xlink="http://www.w3.org/1999/xlink" x="0px" y="0px"
	 width="64px" height="64px" viewBox="0 0 64 64" enable-background="new 0 0 64 64" xml:space="preserve">
<path fill="#FFFFFF" d="M32,0C14.327,0,0,14.327,0,32c0,17.673,14.327,32,32,32s32-14.327,32-32C64,14.327,49.673,0,32,0z M35,37.67
	V42h5v6h-5v6h-6v-6h-5v-6h5v-4.33c-5.74-1.357-10.016-6.5-10.016-12.654C18.984,17.827,24.812,12,32,12s13.016,5.827,13.016,13.016
	C45.016,31.17,40.74,36.314,35,37.67z"/>
</svg>
