<?xml version="1.0" encoding="utf-8"?>
<!-- Generator: Adobe Illustrator 17.0.0, SVG Export Plug-In . SVG Version: 6.00 Build 0)  -->
<!DOCTYPE svg PUBLIC "-//W3C//DTD SVG 1.1//EN" "http://www.w3.org/Graphics/SVG/1.1/DTD/svg11.dtd">
<svg version="1.1" xmlns="http://www.w3.org/2000/svg" xmlns:xlink="http://www.w3.org/1999/xlink" x="0px" y="0px" width="55px"
	 height="55px" viewBox="0 0 55 55" enable-background="new 0 0 55 55" xml:space="preserve">
<g id="Layer_1">
	<path fill="#FFFFFF" d="M27.5,0.088c-15.191,0-27.508,12.316-27.508,27.508c0,15.191,12.316,27.508,27.508,27.508
		s27.508-12.316,27.508-27.508C55.008,12.405,42.691,0.088,27.5,0.088z M27.498,6.921c1.839,0,3.332,1.491,3.332,3.33
		c0,1.839-1.493,3.331-3.332,3.331c-1.839,0-3.329-1.492-3.329-3.331C24.169,8.412,25.659,6.921,27.498,6.921z M37.646,30.785
		c-0.756,0.229-1.556-0.151-1.895-0.861l-2.55-8.282c-0.124-0.407-0.554-0.636-0.961-0.512c-0.367,0.112-0.574,0.473-0.524,0.841
		c-0.011,0.015,3.769,12.362,4.347,14.252h-4.146v10.15c0,1.048-0.848,1.896-1.895,1.896c-1.047,0-1.897-0.849-1.897-1.896v-0.026
		v-9.823v-0.302H27.5h-0.627v0.302v9.823v0.026c0,1.048-0.849,1.896-1.897,1.896c-1.047,0-1.895-0.849-1.895-1.896v-10.15h-4.146
		c0.578-1.89,4.358-14.237,4.347-14.252c0.051-0.368-0.157-0.73-0.524-0.841c-0.407-0.124-0.837,0.105-0.961,0.512l-2.55,8.282
		c-0.338,0.71-1.138,1.089-1.895,0.861c-0.836-0.253-1.303-1.156-1.042-2.014c0,0,3.537-11.188,3.577-11.268
		c0.963-3.006,3.39-2.997,5.624-3.002h3.974c2.234,0.005,4.662-0.004,5.624,3.002c0.04,0.081,3.577,11.268,3.577,11.268
		C38.949,29.629,38.482,30.532,37.646,30.785z"/>
</g>
<g id="Layer_2">
</g>
</svg>
