<?xml version="1.0" encoding="utf-8"?>
<!-- Generator: Adobe Illustrator 17.0.0, SVG Export Plug-In . SVG Version: 6.00 Build 0)  -->
<!DOCTYPE svg PUBLIC "-//W3C//DTD SVG 1.1//EN" "http://www.w3.org/Graphics/SVG/1.1/DTD/svg11.dtd">
<svg version="1.1" id="Layer_1" xmlns="http://www.w3.org/2000/svg" xmlns:xlink="http://www.w3.org/1999/xlink" x="0px" y="0px"
	 width="64px" height="64px" viewBox="0 0 64 64" enable-background="new 0 0 64 64" xml:space="preserve">
<path fill="#FFFFFF" d="M32,0C14.327,0,0,14.327,0,32s14.327,32,32,32s32-14.327,32-32S49.673,0,32,0z M49,20.984v10h-4v-5.937
	l-4.997,4.997c1.278,2.014,2.028,4.395,2.028,6.956c0,7.188-5.827,13.016-13.016,13.016C21.827,50.016,16,44.188,16,37
	c0-7.188,5.827-13.016,13.016-13.016c2.56,0,4.939,0.749,6.952,2.026l5.026-5.026H35v-4h10h4V20.984z"/>
</svg>
