<?xml version="1.0" encoding="utf-8"?>
<!-- Generator: Adobe Illustrator 17.0.0, SVG Export Plug-In . SVG Version: 6.00 Build 0)  -->
<!DOCTYPE svg PUBLIC "-//W3C//DTD SVG 1.1//EN" "http://www.w3.org/Graphics/SVG/1.1/DTD/svg11.dtd">
<svg version="1.1" xmlns="http://www.w3.org/2000/svg" xmlns:xlink="http://www.w3.org/1999/xlink" x="0px" y="0px" width="55px"
	 height="55px" viewBox="0 0 55 55" enable-background="new 0 0 55 55" xml:space="preserve">
<g id="Layer_1">
	<path fill="#FFFFFF" d="M27.508,0.088C12.317,0.088,0,12.405,0,27.596c0,15.191,12.316,27.508,27.508,27.508
		s27.508-12.316,27.508-27.508C55.016,12.405,42.699,0.088,27.508,0.088z M27.507,6.921c1.839,0,3.332,1.491,3.332,3.33
		c0,1.839-1.494,3.331-3.332,3.331c-1.839,0-3.329-1.492-3.329-3.331C24.178,8.412,25.668,6.921,27.507,6.921z M36.184,20.315v9.283
		c0,0.749-0.667,1.353-1.491,1.353c-0.824,0-1.492-0.604-1.492-1.353v-5.017v-1.65v-1.027v-0.001c0-0.349-0.283-0.633-0.633-0.633
		c-0.334,0-0.601,0.261-0.624,0.59c-0.004,0.016-0.018,0.027-0.018,0.044v2.88v21.591c0,1.048-0.848,1.896-1.895,1.896
		c-1.047,0-1.897-0.849-1.897-1.896v-0.026v-9.823v-4.752v-0.912c0-0.344-0.28-0.625-0.627-0.626c-0.347,0-0.627,0.282-0.627,0.626
		v0.912v4.752v9.823v0.026c0,1.048-0.849,1.896-1.897,1.896c-1.047,0-1.895-0.849-1.895-1.896V24.783v-2.88
		c0-0.017-0.015-0.028-0.018-0.044c-0.023-0.328-0.29-0.59-0.624-0.59c-0.349,0-0.633,0.283-0.633,0.633v0.001v1.027v1.65v5.017
		c0,0.749-0.668,1.353-1.492,1.353c-0.824,0-1.491-0.604-1.491-1.353v-9.283c0-0.062,0-0.47,0-0.6c0-2.911,3.102-5.032,5.974-5.193
		l2.07-0.014v-0.008l0.633,0.004l0.633-0.004v0.008l2.07,0.014c2.871,0.16,5.974,2.282,5.974,5.193
		C36.184,19.845,36.184,20.253,36.184,20.315z"/>
</g>
<g id="Layer_2">
</g>
</svg>
