<?xml version="1.0" encoding="utf-8"?>
<!-- Generator: Adobe Illustrator 16.0.0, SVG Export Plug-In . SVG Version: 6.00 Build 0)  -->
<!DOCTYPE svg PUBLIC "-//W3C//DTD SVG 1.1//EN" "http://www.w3.org/Graphics/SVG/1.1/DTD/svg11.dtd">
<svg version="1.1" id="Layer_1" xmlns="http://www.w3.org/2000/svg" xmlns:xlink="http://www.w3.org/1999/xlink" x="0px" y="0px"
	 width="200px" height="50px" viewBox="0 0 200 50" enable-background="new 0 0 200 50" xml:space="preserve">
<g>
	<polygon fill="#00AA55" points="97.087,44.405 90.411,44.405 90.411,15.814 80.576,28.771 70.739,15.814 70.739,44.405 
		64.064,44.405 64.064,9.07 73.315,9.07 80.576,18.817 87.838,9.07 97.087,9.07 	"/>
	<path fill="#00AA55" d="M195.369,30.977V17.695h-6.648v1.705c-0.813-0.921-3.313-2.076-6.008-2.076
		c-3.298,0-6.862,1.449-8.872,4.144c-1.864,2.502-2.88,5.296-2.898,9.509h-0.003c0,0.006,0.003,0.012,0.003,0.017
		c0,0.014-0.003,0.021-0.003,0.032h0.003c0.019,4.213,1.035,7.01,2.898,9.51c2.012,2.695,5.574,4.146,8.872,4.146
		c2.695,0,5.194-1.155,6.008-2.078v1.705h6.648V30.977L195.369,30.977z M186.583,38.113c-0.953,0.797-2.055,1.196-3.313,1.196
		c-1.917,0-5.653-1.423-5.849-7.916c-0.005-0.142,0-0.278,0-0.417l0,0c-0.002-0.121-0.005-0.241-0.002-0.366
		c0.195-6.496,3.934-7.916,5.85-7.916c1.258,0,2.361,0.398,3.314,1.197c1.547,1.317,2.283,3.856,2.323,6.925
		c0,0.052-0.003,0.106-0.005,0.16l0,0c0,0.006,0,0.011,0,0.015c0,0.013,0,0.023,0,0.034h0.002c0.003,0.057,0.003,0.11,0.003,0.161
		C188.866,34.254,188.13,36.794,186.583,38.113z"/>
	<path fill="#00AA55" d="M152.356,30.977V9.123h-6.647v10.276c-0.813-0.921-3.313-2.076-6.01-2.076c-3.297,0-6.861,1.449-8.87,4.144
		c-1.864,2.502-2.879,5.296-2.899,9.509l0,0c0,0.006,0,0.012,0,0.017c0,0.014-0.002,0.021-0.002,0.032h0.002
		c0.021,4.213,1.035,7.01,2.899,9.51c2.009,2.695,5.573,4.146,8.871,4.146c2.695,0,5.195-1.155,6.009-2.078v1.705h6.647V30.977
		L152.356,30.977z M143.569,38.113c-0.95,0.797-2.055,1.196-3.313,1.196c-1.914,0-5.652-1.423-5.85-7.916
		c-0.003-0.142,0-0.278,0.002-0.417h-0.002c-0.001-0.121-0.003-0.241,0-0.366c0.195-6.496,3.934-7.916,5.85-7.916
		c1.259,0,2.363,0.398,3.313,1.197c1.548,1.317,2.284,3.856,2.323,6.925c0.001,0.052-0.002,0.106-0.003,0.16l0,0
		c0,0.006,0,0.011,0,0.015c0,0.013-0.002,0.023-0.002,0.034h0.002c0.001,0.057,0.004,0.11,0.004,0.161
		C145.854,34.254,145.117,36.794,143.569,38.113z"/>
	<g>
		<rect x="159.151" y="9.19" fill="#00AA55" width="6.646" height="6.05"/>
		<rect x="159.151" y="18.23" fill="#00AA55" width="6.646" height="26.451"/>
	</g>
	<path fill="#00AA55" d="M112.722,44.681c-7.223,0-13.098-6.109-13.098-13.619c0-7.509,5.875-13.62,13.098-13.62
		c7.221,0,13.096,6.111,13.096,13.62C125.817,38.571,119.942,44.681,112.722,44.681z M112.722,22.608
		c-4.096,0-6.995,4.109-6.995,8.493s2.899,8.414,6.995,8.414c4.092,0,6.992-4.166,6.992-8.55
		C119.714,26.584,116.813,22.608,112.722,22.608z"/>
</g>
<path fill="#00683E" d="M35.035,17.624c-0.428,0-0.831,0.167-1.134,0.47l-4.606,4.607l2.265,2.265l3.474-3.473L46.25,32.707
	L32.822,46.135L21.604,34.919l7.668-7.667l-2.264-2.265l-8.802,8.802c-0.625,0.624-0.625,1.642-0.002,2.265l13.483,13.484
	c0.303,0.303,0.705,0.469,1.134,0.469c0.428,0,0.83-0.166,1.134-0.469l15.694-15.697c0.303-0.301,0.47-0.706,0.47-1.135
	c0-0.427-0.167-0.829-0.47-1.132L36.168,18.096C35.864,17.79,35.461,17.625,35.035,17.624z"/>
<g>
	<path fill="#00AA55" d="M49.612,16.164L33.916,0.47c-0.301-0.305-0.703-0.469-1.131-0.469c-0.429,0-0.831,0.166-1.134,0.469
		L18.206,13.915c-0.625,0.623-0.625,1.64,0,2.266l1.424,1.421l-0.002,0.003l14.275,14.272c0.301,0.303,0.703,0.469,1.132,0.469
		c0.427,0,0.83-0.166,1.131-0.469l13.446-13.446c0.304-0.306,0.469-0.707,0.469-1.134C50.081,16.869,49.915,16.466,49.612,16.164z
		 M35.033,28.477L21.604,15.049l11.18-11.18l13.429,13.428L35.033,28.477z"/>
	<path fill="#00AA55" d="M15.156,21.492l7.673,7.674l2.268-2.268c-1.971-1.97-4.1-4.1-4.1-4.1l-4.709-4.708
		c-0.305-0.301-0.706-0.467-1.135-0.467c-0.426-0.002-0.828,0.167-1.131,0.467l-4.624,4.626l2.267,2.268L15.156,21.492z"/>
	<path fill="#00AA55" d="M27.36,29.164l-2.267,2.268l3.491,3.488L17.48,46.024L4.052,32.597l5.344-5.347L7.13,24.984l-6.479,6.479
		c-0.303,0.305-0.47,0.706-0.47,1.134c0.001,0.429,0.167,0.831,0.47,1.133l15.695,15.695c0.303,0.303,0.705,0.47,1.132,0.47
		c0.429,0,0.832-0.167,1.135-0.47l13.37-13.37c0.624-0.624,0.624-1.642,0-2.266C31.983,33.789,29.992,31.795,27.36,29.164z"/>
</g>
<path fill="#00683E" d="M17.403,0c-0.428,0.001-0.83,0.166-1.133,0.469L0.576,16.165c-0.302,0.304-0.469,0.706-0.469,1.134
	c0,0.429,0.167,0.83,0.469,1.133l13.445,13.443c0.303,0.305,0.705,0.471,1.132,0.471c0.428,0,0.831-0.166,1.134-0.471l4.625-4.624
	l-2.265-2.264l-3.492,3.49L3.975,17.298L17.403,3.869l11.18,11.18l-7.668,7.667l2.265,2.265l8.803-8.8
	c0.624-0.624,0.625-1.642,0-2.265L18.538,0.47C18.236,0.167,17.832,0.001,17.403,0z"/>
</svg>
