<?xml version="1.0" encoding="utf-8"?>
<!-- Generator: Adobe Illustrator 16.0.0, SVG Export Plug-In . SVG Version: 6.00 Build 0)  -->
<!DOCTYPE svg PUBLIC "-//W3C//DTD SVG 1.1//EN" "http://www.w3.org/Graphics/SVG/1.1/DTD/svg11.dtd">
<svg version="1.1" id="Layer_1" xmlns="http://www.w3.org/2000/svg" xmlns:xlink="http://www.w3.org/1999/xlink" x="0px" y="0px"
	 width="100px" height="62.941px" viewBox="0 0 100 62.941" enable-background="new 0 0 100 62.941" xml:space="preserve">
<g>
	<g>
		<path fill="#C22026" d="M47.179,34.783h-0.906c-1.289,0-2.339,1.051-2.339,2.341s1.05,2.337,2.339,2.337h3.242v-2.337
			C49.515,35.833,48.466,34.783,47.179,34.783z M46.685,0C29.309,0,15.218,14.092,15.218,31.472
			c0,17.379,14.091,31.469,31.467,31.469c17.383,0,31.477-14.09,31.477-31.469C78.162,14.092,64.068,0,46.685,0z M73.924,29.81
			l-6.01,14.876c-0.209,0.528-0.744,0.528-0.744,0.528h-5.703c0,0-0.533,0-0.746-0.528l-5.418-13.449v8.224h1.723
			c0,0,0.504,0,0.43,0.396h-0.002c-0.008,0.037-1.939,4.829-1.939,4.829c-0.213,0.528-0.744,0.528-0.744,0.528h-4.827
			c-0.232,0-0.428-0.189-0.428-0.429v-4.62l-1.825,4.521c-0.213,0.528-0.749,0.528-0.749,0.528h-0.623
			c-2.85,0-5.143-1.167-6.536-3.119l-1.048,2.591c-0.211,0.528-0.745,0.528-0.745,0.528h-4.728c-0.235,0-0.427-0.189-0.427-0.429
			v-6.04c0-1.735-0.065-2.323-0.325-2.812c-0.127-0.229-0.36-0.425-0.618-0.523c-0.43-0.199-0.664-0.229-1.767-0.229h-1.922v9.604
			c0,0.239-0.193,0.429-0.426,0.429h-4.932c-0.24,0-0.428-0.189-0.428-0.429v-9.604h-1.912c-0.465,0-0.262-0.504-0.262-0.504
			l2.034-5.043c0.14-0.341,0.524-0.341,0.524-0.341h4.975c0.233,0,0.426,0.195,0.426,0.427v4.761l1.957-4.848
			c0.137-0.341,0.526-0.341,0.526-0.341h2.15c1.831,0,2.684,0.196,3.632,0.751c0.461,0.295,0.884,0.655,1.177,1.081
			c0.638,0.868,0.834,1.716,0.875,4.082c0.742-3.567,3.125-5.914,6.689-5.914c1.591,0,4.308,1.092,4.308,3.644v-3.216
			c0-0.232,0.195-0.427,0.428-0.427h10.756c0,0,0.389,0,0.525,0.341l3.092,9.477l3.1-9.477c0.135-0.341,0.52-0.341,0.52-0.341h5.594
			C73.529,29.293,74.133,29.293,73.924,29.81z M0,45.214h6.188l6.424-15.921h-6.18L0,45.214z M79.373,45.214h3.369l6.352-15.921
			h-3.369L79.373,45.214z M98.209,29.293l-6.348,15.921h1.789L100,29.293H98.209z"/>
	</g>
</g>
</svg>
