<?xml version="1.0" encoding="utf-8"?>
<!-- Generator: Adobe Illustrator 16.0.0, SVG Export Plug-In . SVG Version: 6.00 Build 0)  -->
<!DOCTYPE svg PUBLIC "-//W3C//DTD SVG 1.1//EN" "http://www.w3.org/Graphics/SVG/1.1/DTD/svg11.dtd">
<svg version="1.1" id="Layer_1" xmlns="http://www.w3.org/2000/svg" xmlns:xlink="http://www.w3.org/1999/xlink" x="0px" y="0px"
	 width="34px" height="400px" viewBox="0 0 34 400" enable-background="new 0 0 34 400" xml:space="preserve">
<g>
	<path fill="#C22026" d="M16.727,12.279c-0.457-1.273-0.856-1.846-1.297-1.846c-0.091,0-0.18,0.023-0.261,0.07
		c-0.188,0.111-0.277,0.318-0.25,0.573c0.059,0.522,0.626,1.256,1.451,1.562c0.606,1.789,1.093,4.248,1.099,4.272l0.032,0.17v-2.115
		c-0.165-0.677-0.365-1.438-0.589-2.144l0.006,0.001L16.9,12.775c0.199,0.021,0.399,0.015,0.602-0.014v-0.479
		C17.239,12.333,16.979,12.344,16.727,12.279z M15.375,11.031c-0.004-0.032-0.009-0.107,0.054-0.139
		c0.012,0,0.262,0.017,0.708,1.125C15.68,11.727,15.402,11.296,15.375,11.031z"/>
	<path fill="#C22026" d="M17.503,12.288v0.478c0.437-0.061,0.871-0.229,1.29-0.533l-1.066,3.697
		c-0.062-0.271-0.139-0.603-0.223-0.945v2.117l0.146,0.754l2.055-7.123l-0.641,0.654C18.555,11.908,18.026,12.198,17.503,12.288z"/>
	<path fill="#C22026" d="M17,1C8.164,1,1,8.164,1,17c0,8.837,7.163,16,16,16s16-7.163,16-16C33,8.164,25.838,1,17,1z M19,25.68
		c0,0.729-0.595,1.32-1.32,1.32h-1.354c-0.732,0-1.324-0.591-1.324-1.32V25h4L19,25.68L19,25.68z M19,24h-4v-1h4V24z M20.457,19.498
		C19.891,20.141,19.016,21.5,19,22h-4c-0.017-0.5-0.587-1.578-1.453-2.502c-1.167-1.245-2.537-3.016-2.541-5.624
		C11,10.436,13.358,8,17,8h0.003c3.642,0,6,2.438,5.995,5.874C22.994,16.616,21.922,17.835,20.457,19.498z"/>
</g>
<g>
	<path fill="#18A8E0" d="M16.727,377.279c-0.457-1.273-0.856-1.846-1.297-1.846c-0.091,0-0.18,0.023-0.261,0.07
		c-0.188,0.111-0.277,0.318-0.25,0.574c0.059,0.521,0.626,1.256,1.451,1.561c0.606,1.789,1.093,4.248,1.099,4.273l0.032,0.17v-2.115
		c-0.165-0.678-0.365-1.439-0.589-2.145l0.006,0.002l-0.018-0.049c0.199,0.021,0.399,0.016,0.602-0.014v-0.479
		C17.239,377.334,16.979,377.344,16.727,377.279z M15.375,376.031c-0.004-0.031-0.008-0.107,0.054-0.139
		c0.012,0,0.262,0.018,0.708,1.125C15.68,376.727,15.402,376.297,15.375,376.031z"/>
	<path fill="#18A8E0" d="M17.503,377.289v0.477c0.437-0.061,0.871-0.229,1.29-0.533l-1.066,3.697
		c-0.062-0.27-0.139-0.602-0.223-0.945v2.117l0.146,0.754l2.055-7.123l-0.641,0.654C18.555,376.908,18.026,377.199,17.503,377.289z"
		/>
	<path fill="#18A8E0" d="M17,366c-8.836,0-16,7.164-16,16c0,8.838,7.163,16,16,16s16-7.162,16-16C33,373.164,25.838,366,17,366z
		 M19,390.68c0,0.73-0.595,1.32-1.32,1.32h-1.354c-0.732,0-1.324-0.59-1.324-1.32V390h4L19,390.68L19,390.68z M19,389h-4v-1h4V389z
		 M20.457,384.498C19.891,385.141,19.016,386.5,19,387h-4c-0.017-0.5-0.587-1.578-1.453-2.502c-1.167-1.244-2.537-3.016-2.541-5.623
		C11,375.436,13.358,373,17,373h0.003c3.642,0,6,2.438,5.995,5.875C22.994,381.617,21.922,382.836,20.457,384.498z"/>
</g>
</svg>
