<?xml version="1.0" encoding="UTF-8" standalone="no"?>
<svg width="24px" height="23px" viewBox="0 0 24 23" version="1.1" xmlns="http://www.w3.org/2000/svg" xmlns:xlink="http://www.w3.org/1999/xlink">
    <!-- Generator: Sketch 39.1 (31720) - http://www.bohemiancoding.com/sketch -->
    <title>alarm</title>
    <desc>Created with Sketch.</desc>
    <defs></defs>
    <g id="Page-1" stroke="none" stroke-width="1" fill="none" fill-rule="evenodd">
        <g id="ikoner" transform="translate(-227.000000, -98.000000)" fill="#3E3832">
            <g id="alarm" transform="translate(227.000000, 98.000000)">
                <g id="Outline_Version">
                    <path d="M23.5,19 C22.122,19 21,17.879 21,16.5 L21,11 C21,7.359 18.76,4.049 15.397,2.675 C15.022,1.108 13.637,0 12,0 C10.388,0 8.976,1.131 8.601,2.675 C5.239,4.048 3,7.358 3,11 L3,16.5 C3,17.879 1.878,19 0.5,19 C0.224,19 0,19.224 0,19.5 C0,19.776 0.224,20 0.5,20 L8.551,20 C8.796,21.691 10.242,23 12,23 C13.758,23 15.204,21.691 15.449,20 L23.5,20 C23.776,20 24,19.776 24,19.5 C24,19.224 23.776,19 23.5,19 L23.5,19 Z M12,22 C10.793,22 9.783,21.14 9.551,20 L14.449,20 C14.217,21.14 13.207,22 12,22 L12,22 Z M2.947,19 C3.597,18.364 4,17.479 4,16.5 L4,11 C4,7.68 6.094,4.67 9.211,3.51 C9.381,3.447 9.503,3.296 9.531,3.117 C9.716,1.91 10.778,1 12,1 C13.239,1 14.276,1.891 14.465,3.117 C14.492,3.296 14.615,3.446 14.785,3.51 C17.904,4.671 20,7.681 20,11 L20,16.5 C20,17.479 20.403,18.364 21.053,19 L2.947,19 L2.947,19 Z" id="Shape"></path>
                </g>
            </g>
        </g>
    </g>
</svg>