<?xml version="1.0" encoding="UTF-8" standalone="no"?>
<svg width="31px" height="32px" viewBox="0 0 31 32" version="1.1" xmlns="http://www.w3.org/2000/svg" xmlns:xlink="http://www.w3.org/1999/xlink">
    <!-- Generator: Sketch 39.1 (31720) - http://www.bohemiancoding.com/sketch -->
    <title>alarm</title>
    <desc>Created with Sketch.</desc>
    <defs></defs>
    <g id="Page-1" stroke="none" stroke-width="1" fill="none" fill-rule="evenodd" stroke-linecap="round" stroke-linejoin="round">
        <g stroke="#3E3832" stroke-width="0.977">
            <path d="M26.443,21.0149333 L26.443,14.0149333 C26.443,9.3696 23.467,5.41626667 19.2995217,3.8856 C19.0137826,2.05493333 17.4179565,0.650933333 15.4851739,0.650933333 C13.5510435,0.650933333 11.9498261,2.05493333 11.6654348,3.8856 C7.49795652,5.41626667 4.526,9.3696 4.526,14.0149333 L4.526,21.0149333 C4.526,23.1242667 2.79269565,24.8336 0.659086957,24.8336 L30.3112609,24.8336 C28.1722609,24.8336 26.443,23.1242667 26.443,21.0149333 L26.443,21.0149333 Z" id="Stroke-1"></path>
            <path d="M19.172287,27.3218667 C19.172287,29.4312 17.4389826,31.1405333 15.3040261,31.1405333 C13.1650261,31.1405333 11.437113,29.4312 11.437113,27.3218667" id="Stroke-3"></path>
        </g>
    </g>
</svg>