<?xml version="1.0" encoding="UTF-8" standalone="no"?>
<svg width="33px" height="37px" viewBox="0 0 33 37" version="1.1" xmlns="http://www.w3.org/2000/svg" xmlns:xlink="http://www.w3.org/1999/xlink">
    <!-- Generator: Sketch 39.1 (31720) - http://www.bohemiancoding.com/sketch -->
    <title>alarm_new</title>
    <desc>Created with Sketch.</desc>
    <defs></defs>
    <g id="Page-1" stroke="none" stroke-width="1" fill="none" fill-rule="evenodd">
        <g>
            <g id="Group-5" transform="translate(0.000000, 5.329900)" stroke="#3E3832" stroke-linecap="round" stroke-linejoin="round">
                <path d="M26.2839,20.3744 L26.2839,13.3744 C26.2839,8.7294 23.3079,4.7754 19.1409,3.2454 C18.8549,1.4144 17.2589,0.0104 15.3259,0.0104 C13.3919,0.0104 11.7909,1.4144 11.5059,3.2454 C7.3389,4.7754 4.3669,8.7294 4.3669,13.3744 L4.3669,20.3744 C4.3669,22.4834 2.6339,24.1934 0.4999,24.1934 L30.1519,24.1934 C28.0129,24.1934 26.2839,22.4834 26.2839,20.3744 L26.2839,20.3744 Z" id="Stroke-1"></path>
                <path d="M19.0132,26.6813 C19.0132,28.7903 17.2802,30.5003 15.1452,30.5003 C13.0062,30.5003 11.2782,28.7903 11.2782,26.6813" id="Stroke-3"></path>
            </g>
            <g id="Group-12" transform="translate(14.000000, 0.329900)">
                <path d="M9.3903,17.918 L9.3903,17.918 C4.4913,17.918 0.5203,13.947 0.5203,9.048 L0.5203,9.048 C0.5203,4.149 4.4913,0.178 9.3903,0.178 L9.3903,0.178 C14.2893,0.178 18.2603,4.149 18.2603,9.048 L18.2603,9.048 C18.2603,13.947 14.2893,17.918 9.3903,17.918" id="Fill-6" fill="#C30000"></path>
                <path d="M9.3903,17.918 L9.3903,17.918 C4.4913,17.918 0.5203,13.947 0.5203,9.048 L0.5203,9.048 C0.5203,4.149 4.4913,0.178 9.3903,0.178 L9.3903,0.178 C14.2893,0.178 18.2603,4.149 18.2603,9.048 L18.2603,9.048 C18.2603,13.947 14.2893,17.918 9.3903,17.918 L9.3903,17.918 Z" id="Stroke-8" stroke="#FFFFFF" stroke-width="1.016"></path>
                <path d="M11.3903,9.048 C11.3903,10.153 10.4953,11.048 9.3903,11.048 C8.2853,11.048 7.3903,10.153 7.3903,9.048 C7.3903,7.943 8.2853,7.048 9.3903,7.048 C10.4953,7.048 11.3903,7.943 11.3903,9.048" id="Fill-10" fill="#FFFFFF"></path>
            </g>
        </g>
    </g>
</svg>